<?xml version="1.0" standalone="no"?>
<!DOCTYPE svg PUBLIC "-//W3C//DTD SVG 20010904//EN"
 "http://www.w3.org/TR/2001/REC-SVG-20010904/DTD/svg10.dtd">
<svg version="1.0" xmlns="http://www.w3.org/2000/svg"
 width="2048.000000pt" height="2048.000000pt" viewBox="0 0 2048.000000 2048.000000"
 preserveAspectRatio="xMidYMid meet">

<g transform="translate(0.000000,2048.000000) scale(0.100000,-0.100000)"
fill="#000000" stroke="none">
<path d="M3457 11673 c-3 -5 -8 -24 -12 -43 -24 -113 -123 -275 -239 -390 -42
-41 -76 -78 -76 -82 0 -4 19 -28 42 -55 49 -57 98 -156 98 -198 0 -16 -7 -52
-15 -79 -18 -59 -19 -132 -4 -210 13 -60 8 -76 -15 -57 -30 25 -57 98 -57 155
-1 31 -3 56 -5 56 -2 0 -18 -28 -36 -62 -27 -53 -32 -74 -32 -133 0 -96 18
-126 167 -276 103 -103 128 -134 143 -177 10 -29 22 -52 26 -52 3 0 19 26 35
58 24 50 28 69 28 147 0 90 0 90 -62 220 -73 152 -88 205 -80 285 4 52 40 140
56 140 3 0 7 -29 7 -64 1 -35 9 -89 19 -121 19 -58 123 -236 143 -243 11 -3
32 58 32 96 0 34 16 26 34 -18 23 -58 39 -176 31 -234 l-6 -51 26 25 c39 36
74 111 81 172 8 76 -18 192 -57 247 -30 44 -31 47 -25 120 8 92 43 172 110
253 l47 56 -85 87 c-46 47 -101 111 -121 141 -46 68 -100 184 -116 247 -6 26
-15 47 -20 47 -5 0 -9 -108 -9 -240 0 -231 1 -242 21 -270 21 -28 21 -30 5
-55 -22 -33 -41 -40 -72 -27 -18 9 -24 19 -24 43 0 18 6 40 14 48 11 13 15 68
18 259 3 216 0 260 -15 235z"/>
<path d="M14050 11206 c0 -2 8 -10 18 -17 15 -13 16 -12 3 4 -13 16 -21 21
-21 13z"/>
<path d="M14090 11141 c0 -6 4 -13 10 -16 6 -3 7 1 4 9 -7 18 -14 21 -14 7z"/>
<path d="M11485 10783 c-309 -603 -595 -1165 -595 -1169 0 -3 86 -3 191 -2
l191 3 37 82 c24 55 43 84 56 87 11 3 141 6 288 6 l269 0 41 -90 42 -90 192 0
c106 0 193 3 192 8 0 4 -163 331 -362 727 -235 467 -368 721 -378 723 -13 2
-53 -68 -164 -285z m170 -380 c4 -16 38 -98 76 -183 38 -85 69 -158 69 -162 0
-4 -74 -8 -165 -8 -91 0 -165 3 -165 6 0 3 26 62 58 132 32 70 69 153 83 184
13 32 27 58 30 58 4 0 10 -12 14 -27z"/>
<path d="M2550 10327 l0 -704 115 -11 c128 -12 298 -63 422 -125 96 -49 236
-144 312 -213 l63 -58 -4 230 c-5 204 -8 239 -31 326 -26 99 -84 226 -139 306
-35 51 -109 137 -227 267 -194 211 -252 363 -206 535 8 30 15 58 15 62 0 12
-100 60 -155 74 -27 8 -76 14 -107 14 l-58 0 0 -703z"/>
<path d="M4273 11015 c-29 -8 -76 -26 -103 -40 -44 -22 -50 -29 -44 -48 28
-88 31 -175 8 -262 -26 -103 -86 -190 -268 -390 -170 -188 -221 -259 -270
-385 -56 -142 -67 -209 -73 -449 l-6 -225 88 73 c110 91 181 139 272 185 167
84 321 130 476 141 l87 7 0 704 0 704 -57 -1 c-32 0 -82 -7 -110 -14z"/>
<path d="M5060 10320 l0 -710 180 0 180 0 0 275 0 275 285 0 285 0 0 -275 0
-275 180 0 180 0 0 710 0 710 -180 0 -180 0 0 -270 0 -269 -262 -3 c-145 -2
-273 -1 -285 1 l-23 3 0 269 0 269 -180 0 -180 0 0 -710z"/>
<path d="M6490 11022 c0 -4 4 -12 9 -17 9 -10 447 -741 502 -840 l29 -50 0
-252 0 -253 180 0 180 0 0 257 0 257 137 230 c121 204 329 552 385 644 l20 32
-205 0 -205 0 -89 -162 c-49 -90 -119 -216 -154 -280 -35 -65 -66 -118 -69
-118 -7 0 4 -18 -176 307 l-139 253 -202 0 c-112 0 -203 -4 -203 -8z"/>
<path d="M8070 10320 l0 -712 353 4 c341 5 355 6 450 31 137 36 226 86 318
177 92 91 149 199 175 330 20 102 14 311 -11 405 -45 163 -165 310 -316 384
-161 79 -195 84 -606 89 l-363 4 0 -712z m762 332 c75 -37 110 -72 147 -152
24 -50 26 -66 26 -180 0 -114 -2 -130 -26 -181 -30 -64 -83 -120 -137 -148
-58 -29 -126 -40 -272 -43 l-135 -3 -3 373 -2 374 168 -4 c166 -3 168 -3 234
-36z"/>
<path d="M9596 11022 c-2 -4 -4 -322 -3 -707 l2 -700 178 -3 177 -2 0 230 0
231 106 -3 106 -3 142 -225 143 -225 201 -3 c111 -1 202 0 202 3 0 8 -30 54
-189 295 -78 116 -141 213 -141 215 0 1 26 18 59 38 154 95 223 264 193 469
-31 212 -163 345 -382 384 -83 15 -785 20 -794 6z m750 -328 c47 -35 67 -70
72 -127 5 -69 -10 -115 -51 -154 -48 -46 -84 -53 -258 -53 l-159 0 0 181 0
180 184 -3 c168 -3 187 -5 212 -24z"/>
<path d="M14070 11010 c-6 -11 -8 -20 -6 -20 3 0 10 9 16 20 6 11 8 20 6 20
-3 0 -10 -9 -16 -20z"/>
<path d="M14021 10924 c-12 -20 -20 -38 -18 -40 2 -2 14 14 26 36 28 50 21 53
-8 4z"/>
<path d="M13975 10840 c-9 -16 -13 -30 -11 -30 3 0 12 14 21 30 9 17 13 30 11
30 -3 0 -12 -13 -21 -30z"/>
<path d="M13947 10793 c-4 -3 -7 -11 -7 -17 0 -6 5 -5 12 2 6 6 9 14 7 17 -3
3 -9 2 -12 -2z"/>
<path d="M13018 10743 c-70 -73 -398 -549 -398 -578 0 -18 32 -52 55 -59 27
-8 39 2 65 54 34 66 144 232 168 254 l22 19 0 -53 c0 -29 7 -95 16 -147 9 -53
12 -98 8 -103 -5 -4 -31 -13 -58 -19 -79 -19 -157 -62 -211 -116 -73 -72 -90
-113 -90 -211 0 -72 3 -85 28 -123 43 -65 117 -96 227 -96 112 0 179 8 177 20
-1 6 3 9 9 8 6 -1 11 5 11 13 0 8 -5 14 -10 14 -6 0 -8 3 -5 6 4 3 16 0 29 -6
19 -11 21 -10 15 5 -5 14 -2 16 14 12 12 -3 23 1 29 10 7 13 9 13 14 -2 8 -18
-6 -48 -34 -79 -11 -11 -19 -25 -19 -30 0 -18 48 46 74 99 35 70 49 168 44
298 -4 101 -3 112 15 130 16 16 19 17 14 4 -5 -15 1 -17 46 -17 29 0 63 -3 77
-5 22 -5 23 -4 5 4 -11 5 -41 13 -68 16 -26 3 -45 10 -42 16 5 8 1 10 -20 9
-3 0 -12 5 -19 12 -10 9 -11 15 -3 20 6 4 15 2 19 -5 5 -8 8 -6 8 6 0 12 9 17
33 18 19 1 10 4 -26 9 -32 4 -60 9 -62 12 -12 11 -26 169 -20 218 9 71 22 101
79 179 36 47 46 69 42 86 -8 30 -35 57 -48 49 -6 -4 -8 -2 -5 3 9 14 -40 46
-55 37 -6 -4 -8 -3 -5 3 5 8 -71 53 -91 53 -4 0 -28 -21 -54 -47z m67 27 c-3
-5 -10 -10 -16 -10 -5 0 -9 5 -9 10 0 6 7 10 16 10 8 0 12 -4 9 -10z m25 -20
c0 -3 -16 -7 -35 -8 -19 -2 -35 1 -35 6 0 4 16 8 35 8 19 0 35 -3 35 -6z
m-117 -75 c-3 -9 -8 -14 -10 -11 -3 3 -2 9 2 15 9 16 15 13 8 -4z m-53 -95 c8
-5 11 -10 5 -10 -5 0 -17 5 -25 10 -8 5 -10 10 -5 10 6 0 17 -5 25 -10z m-34
-25 c-3 -8 -1 -15 4 -15 6 0 10 6 10 13 0 6 7 -1 15 -17 20 -38 13 -58 -17
-51 -16 4 -32 -2 -50 -18 -29 -25 -40 -50 -13 -27 12 10 15 9 15 -5 0 -10 -3
-15 -7 -12 -3 4 -12 2 -20 -5 -7 -6 -16 -8 -20 -4 -3 3 -15 -2 -26 -11 -20
-18 -20 -18 -1 12 10 17 34 52 53 80 49 71 70 93 57 60z m-11 -94 c-3 -6 -11
-11 -16 -11 -5 0 -4 6 3 14 14 16 24 13 13 -3z m91 -466 c4 -14 4 -45 1 -68
l-6 -42 17 39 c18 39 18 39 30 15 7 -13 10 -16 8 -7 -3 10 0 20 6 24 7 4 8 3
4 -4 -4 -7 -2 -12 3 -12 6 0 11 -11 11 -25 0 -14 6 -25 13 -25 8 0 7 -3 -3
-10 -12 -7 -10 -11 10 -19 24 -9 24 -10 3 -10 -13 -1 -23 -6 -23 -12 0 -5 4
-8 10 -4 5 3 3 -7 -5 -22 -8 -15 -15 -35 -15 -43 0 -13 -1 -13 -10 0 -8 13
-10 12 -10 -3 0 -10 -4 -16 -8 -13 -12 7 -54 -23 -47 -35 3 -5 -1 -6 -9 -3
-10 4 -16 1 -16 -9 0 -10 7 -13 20 -10 24 6 27 -22 6 -49 -14 -19 -32 -25 -21
-8 3 6 1 10 -4 10 -17 0 -13 -18 7 -30 15 -9 14 -10 -5 -5 -17 5 -23 2 -23 -9
0 -9 8 -16 17 -16 9 0 14 -2 11 -5 -10 -11 -154 -16 -183 -6 -29 9 -29 9 -5
11 22 1 23 2 6 9 -20 8 -19 10 29 47 17 13 17 15 2 10 -11 -3 -16 -2 -12 4 3
6 21 10 38 10 35 0 82 27 109 62 10 13 18 17 18 10 0 -7 5 -10 10 -7 6 3 10
11 10 16 0 6 -4 7 -10 4 -12 -8 -13 5 -1 24 7 11 11 10 20 -5 15 -28 13 -11
-3 21 l-14 27 -20 -43 c-29 -66 -65 -94 -119 -94 -38 0 -49 5 -74 33 -24 26
-29 41 -29 82 0 61 10 87 49 127 43 45 120 82 193 92 4 1 10 -10 14 -24z m187
-262 c-3 -21 -10 -47 -15 -58 -6 -15 -7 -11 -3 14 3 18 5 44 5 57 0 13 4 24 9
24 6 0 7 -17 4 -37z"/>
<path d="M12910 10519 c0 -5 5 -7 10 -4 6 3 10 8 10 11 0 2 -4 4 -10 4 -5 0
-10 -5 -10 -11z"/>
<path d="M12970 9845 c0 -8 2 -15 4 -15 2 0 6 7 10 15 3 8 1 15 -4 15 -6 0
-10 -7 -10 -15z"/>
<path d="M12911 9614 c0 -11 3 -14 6 -6 3 7 2 16 -1 19 -3 4 -6 -2 -5 -13z"/>
<path d="M13905 10710 c-14 -27 -23 -50 -20 -50 2 0 16 23 30 50 14 28 23 50
20 50 -2 0 -16 -22 -30 -50z"/>
<path d="M14069 10633 c-13 -16 -12 -17 4 -4 16 13 21 21 13 21 -2 0 -10 -8
-17 -17z"/>
<path d="M13809 10529 c-22 -45 -39 -83 -37 -85 2 -2 23 35 46 81 23 47 40 85
37 85 -3 0 -23 -36 -46 -81z"/>
<path d="M14253 10446 c-12 -24 -64 -88 -115 -142 -72 -76 -81 -89 -41 -55 29
23 70 62 91 86 38 43 98 143 90 150 -2 3 -14 -15 -25 -39z"/>
<path d="M13732 10365 c-17 -37 -14 -45 4 -12 9 16 14 31 11 33 -2 2 -9 -7
-15 -21z"/>
<path d="M13696 10291 c-9 -16 -16 -36 -16 -43 1 -7 10 4 21 25 11 22 18 41
15 44 -2 3 -12 -9 -20 -26z"/>
<path d="M13748 10203 c7 -3 16 -2 19 1 4 3 -2 6 -13 5 -11 0 -14 -3 -6 -6z"/>
<path d="M13378 10123 c7 -3 16 -2 19 1 4 3 -2 6 -13 5 -11 0 -14 -3 -6 -6z"/>
<path d="M13821 10034 c0 -11 3 -14 6 -6 3 7 2 16 -1 19 -3 4 -6 -2 -5 -13z"/>
<path d="M13570 9995 c-19 -14 -29 -25 -22 -25 7 0 10 -5 7 -10 -4 -6 -10 -8
-15 -5 -5 3 -12 0 -17 -7 -11 -19 -13 -39 -2 -32 5 3 9 0 9 -5 0 -14 -6 -14
-31 -1 -15 8 -23 7 -34 -4 -8 -8 -15 -19 -15 -25 0 -6 -5 -11 -11 -11 -8 0 -9
-13 -5 -40 4 -26 1 -53 -9 -77 -9 -20 -12 -39 -7 -42 10 -7 26 -43 24 -53 -1
-5 3 -8 9 -8 5 0 7 -4 4 -10 -8 -12 -45 -13 -45 -1 0 5 7 12 16 15 8 3 12 11
9 16 -4 7 -11 7 -18 2 -7 -5 -23 -12 -37 -15 -24 -6 -24 -6 -5 10 19 15 19 15
-8 9 -22 -5 -27 -4 -21 6 4 7 4 10 -1 6 -4 -4 -15 -2 -24 5 -8 6 -5 -2 7 -19
26 -37 67 -57 113 -52 31 3 33 6 36 41 3 54 28 147 64 235 34 85 51 109 83
115 19 4 19 4 1 5 -11 1 -36 -10 -55 -23z"/>
<path d="M13351 9964 c0 -11 3 -14 6 -6 3 7 2 16 -1 19 -3 4 -6 -2 -5 -13z"/>
<path d="M13464 9953 c3 -6 0 -13 -6 -16 -7 -2 -11 -7 -8 -10 3 -3 12 -2 20 3
13 8 13 11 1 22 -8 8 -11 8 -7 1z"/>
<path d="M13302 9760 c0 -14 2 -19 5 -12 2 6 2 18 0 25 -3 6 -5 1 -5 -13z"/>
<path d="M13076 9605 c-19 -15 -19 -15 2 -15 13 0 22 6 22 15 0 18 0 18 -24 0z"/>
<path d="M12914 9478 l-19 -23 23 19 c21 18 27 26 19 26 -2 0 -12 -10 -23 -22z"/>
<path d="M7645 9304 c-210 -21 -274 -28 -368 -45 -295 -53 -575 -191 -658
-325 -33 -55 -11 -66 42 -21 57 49 306 172 399 197 100 26 308 57 450 65 146
9 159 11 168 19 4 4 -21 5 -56 2 -40 -4 -61 -2 -57 4 3 6 48 10 98 11 56 1 82
4 67 8 -23 7 -22 8 13 15 55 10 147 5 182 -10 17 -7 53 -15 80 -17 39 -3 33
-4 -30 -7 l-80 -3 105 -8 c58 -5 134 -13 170 -18 l65 -8 -55 -3 c-34 -2 -44
-4 -25 -7 335 -43 800 -117 1235 -198 107 -19 201 -34 210 -31 9 2 6 4 -7 5
-13 0 -23 5 -23 11 0 6 9 6 26 0 29 -11 114 -13 139 -4 13 5 14 8 3 15 -10 7
-10 9 0 9 6 0 12 5 12 10 0 6 -7 10 -15 10 -19 0 -19 14 0 30 9 8 28 9 56 5
34 -6 40 -5 33 6 -6 12 -5 12 8 1 8 -7 23 -10 32 -6 10 4 16 1 16 -7 0 -11 3
-11 10 1 8 13 10 13 10 -2 0 -11 6 -15 20 -11 41 11 18 -7 -27 -21 -27 -8 -38
-15 -27 -15 20 -1 21 -5 14 -36 -8 -35 -8 -35 29 -36 20 0 30 -3 22 -6 -8 -3
-51 0 -96 7 -45 7 -88 11 -95 8 -7 -2 54 -14 136 -26 173 -25 285 -35 239 -23
-28 8 -29 9 -5 10 21 1 23 3 8 11 -12 8 -15 17 -9 38 4 15 6 33 4 40 -3 6 3
12 12 12 9 0 13 -4 10 -10 -9 -14 8 -12 24 3 11 10 14 9 18 -1 3 -6 9 -10 14
-6 5 3 9 0 9 -6 0 -6 -7 -13 -15 -16 -8 -4 -15 -10 -15 -15 0 -14 28 -11 33 4
2 6 8 9 12 5 4 -4 2 -14 -4 -22 -10 -12 -9 -14 6 -11 10 1 22 0 28 -3 5 -4 26
-5 45 -4 26 2 31 0 20 -7 -12 -9 -10 -11 12 -11 14 0 33 -3 41 -6 10 -4 15 2
15 19 0 20 -5 23 -21 19 -12 -3 -18 -1 -14 5 4 7 -7 8 -34 3 -33 -6 -39 -5
-35 7 4 11 1 13 -14 8 -11 -4 -20 -2 -20 3 0 14 29 24 43 15 17 -11 98 -12 91
-2 -3 5 -22 9 -42 9 -20 0 -43 4 -51 9 -9 6 15 8 65 5 l79 -3 -105 14 c-207
29 -441 68 -830 136 -796 141 -881 154 -1195 184 -156 15 -570 27 -650 19z
m-158 -120 c-3 -3 -12 -4 -19 -1 -8 3 -5 6 6 6 11 1 17 -2 13 -5z m1347 -18
c-7 -19 -25 -25 -49 -15 -19 7 -19 8 3 8 12 1 22 6 22 11 0 6 7 10 15 10 8 0
12 -6 9 -14z m116 4 c0 6 14 10 31 10 16 0 28 -3 25 -8 -2 -4 11 -7 30 -6 20
1 31 -2 28 -8 -4 -6 2 -8 17 -4 l24 7 -22 -20 c-13 -10 -23 -24 -23 -30 0 -6
-6 -11 -13 -11 -8 0 -14 -7 -14 -15 0 -11 4 -12 11 -5 13 13 26 13 26 -1 0 -7
7 -17 16 -24 14 -10 7 -12 -37 -14 -67 -2 -219 20 -219 32 0 5 -9 7 -20 4 -11
-3 -23 -1 -26 4 -3 5 4 9 15 9 14 0 19 5 15 15 -4 8 -1 15 5 15 6 0 11 -4 11
-10 0 -5 5 -10 11 -10 5 0 7 5 4 10 -3 6 1 10 9 10 27 0 31 -2 28 -12 -2 -6 4
-8 12 -5 8 3 17 -1 20 -9 3 -8 0 -14 -7 -15 -7 0 -3 -4 8 -9 30 -13 32 -12 40
13 12 39 13 47 5 42 -5 -3 -12 0 -15 6 -4 5 -14 8 -22 5 -11 -4 -13 -2 -9 9 3
9 0 15 -9 15 -8 0 -12 -6 -10 -12 4 -9 -7 -13 -34 -14 -34 0 -37 1 -25 14 8 8
18 12 21 9 3 -4 15 0 26 8 13 9 27 11 43 5 15 -6 24 -6 24 0z m-613 -26 c-3
-3 -12 -4 -19 -1 -8 3 -5 6 6 6 11 1 17 -2 13 -5z m171 -21 c-10 -2 -28 -2
-40 0 -13 2 -5 4 17 4 22 1 32 -1 23 -4z m179 -29 c-3 -3 -12 -4 -19 -1 -8 3
-5 6 6 6 11 1 17 -2 13 -5z m71 -11 c-10 -2 -26 -2 -35 0 -10 3 -2 5 17 5 19
0 27 -2 18 -5z m812 -13 c0 -18 -49 -31 -71 -20 -28 15 -24 17 24 14 31 -3 37
-1 22 6 -19 8 -19 9 3 9 12 1 22 -4 22 -9z m107 -16 c-3 -3 -12 -4 -19 -1 -8
3 -5 6 6 6 11 1 17 -2 13 -5z m363 -63 c0 -5 -8 -8 -17 -7 -10 2 -26 -6 -37
-16 -16 -15 -18 -22 -10 -36 6 -9 20 -17 30 -18 10 0 28 -5 38 -9 19 -8 19 -9
0 -16 -10 -4 -36 -8 -56 -8 -35 -1 -38 1 -44 35 -4 25 -3 39 6 44 7 4 9 13 5
20 -5 9 -1 10 15 5 15 -5 20 -4 16 4 -5 7 4 11 23 11 17 0 31 -4 31 -9z m-717
-8 c-7 -2 -19 -2 -25 0 -7 3 -2 5 12 5 14 0 19 -2 13 -5z m125 -20 c-10 -2
-26 -2 -35 0 -10 3 -2 5 17 5 19 0 27 -2 18 -5z m139 1 c-3 -3 -12 -4 -19 -1
-8 3 -5 6 6 6 11 1 17 -2 13 -5z m-34 -21 c-7 -2 -19 -2 -25 0 -7 3 -2 5 12 5
14 0 19 -2 13 -5z m682 -3 c-3 -5 -12 -10 -18 -10 -7 0 -6 4 3 10 19 12 23 12
15 0z"/>
<path d="M8840 9080 c0 -6 7 -10 15 -10 8 0 15 2 15 4 0 2 -7 6 -15 10 -8 3
-15 1 -15 -4z"/>
<path d="M9038 9053 c7 -3 16 -2 19 1 4 3 -2 6 -13 5 -11 0 -14 -3 -6 -6z"/>
<path d="M7800 9189 c0 -5 9 -9 20 -9 11 0 20 2 20 4 0 2 -9 6 -20 9 -11 3
-20 1 -20 -4z"/>
<path d="M7918 9173 c17 -2 47 -2 65 0 17 2 3 4 -33 4 -36 0 -50 -2 -32 -4z"/>
<path d="M8058 9163 c12 -2 30 -2 40 0 9 3 -1 5 -23 4 -22 0 -30 -2 -17 -4z"/>
<path d="M9768 8963 c7 -3 16 -2 19 1 4 3 -2 6 -13 5 -11 0 -14 -3 -6 -6z"/>
<path d="M10463 8943 c9 -2 25 -2 35 0 9 3 1 5 -18 5 -19 0 -27 -2 -17 -5z"/>
<path d="M10578 8933 c6 -2 18 -2 25 0 6 3 1 5 -13 5 -14 0 -19 -2 -12 -5z"/>
<path d="M10708 8923 c7 -3 16 -2 19 1 4 3 -2 6 -13 5 -11 0 -14 -3 -6 -6z"/>
<path d="M9645 8910 c17 -4 41 -8 55 -8 l25 0 -25 8 c-14 4 -38 8 -55 8 l-30
0 30 -8z"/>
<path d="M9778 8913 c12 -2 30 -2 40 0 9 3 -1 5 -23 4 -22 0 -30 -2 -17 -4z"/>
<path d="M10222 8859 c17 -9 53 -8 63 3 3 3 -13 6 -37 6 -32 1 -39 -2 -26 -9z"/>
<path d="M10300 8841 c0 -4 16 -7 35 -8 19 0 33 3 30 7 -6 9 -65 11 -65 1z"/>
<path d="M10163 8833 c9 -2 23 -2 30 0 6 3 -1 5 -18 5 -16 0 -22 -2 -12 -5z"/>
<path d="M10240 8830 l-25 -8 28 -1 c15 -1 27 4 27 9 0 6 -1 10 -2 9 -2 -1
-14 -5 -28 -9z"/>
<path d="M10303 8813 c15 -2 37 -2 50 0 12 2 0 4 -28 4 -27 0 -38 -2 -22 -4z"/>
<path d="M10398 8803 c12 -2 32 -2 45 0 12 2 2 4 -23 4 -25 0 -35 -2 -22 -4z"/>
<path d="M10507 8793 c18 -2 50 -2 70 0 21 2 7 4 -32 4 -38 0 -55 -2 -38 -4z"/>
</g>
</svg>
